<svg id="Camada_1" data-name="Camada 1" xmlns="http://www.w3.org/2000/svg" viewBox="0 0 1000 356.53"><defs><style>.cls-1{fill:#1f2022;}</style></defs><path class="cls-1" d="M325.74,132.17V1.38H331V132.17Z"/><path class="cls-1" d="M421.39,20.73a47.24,47.24,0,0,0-6.13-6.63,27.79,27.79,0,0,0-6.74-4.42,35.52,35.52,0,0,0-7.63-2.49,44.34,44.34,0,0,0-8.84-.83q-16.92,0-24.55,7.92t-7.63,21.18q0,9,3.29,14.18t10.48,8.21a138.77,138.77,0,0,0,18.57,6,119.5,119.5,0,0,1,20.2,6.82,31.28,31.28,0,0,1,13.17,10.5q4.64,6.63,4.65,18.22A38.35,38.35,0,0,1,427.61,114a27.58,27.58,0,0,1-7.56,10.58A32.19,32.19,0,0,1,408.14,131a52.71,52.71,0,0,1-15.48,2.14A56.64,56.64,0,0,1,376.79,131,46.82,46.82,0,0,1,363,124.43a60.35,60.35,0,0,1-12.12-11.23l3.14-4.79a49.54,49.54,0,0,0,7.86,8.37,44.67,44.67,0,0,0,19.46,9.59,53.88,53.88,0,0,0,11.45,1.19q15,0,23.58-6.9T425,100.3c0-6.27-1.25-11.26-3.75-15s-6.28-6.81-11.38-9.22a108.15,108.15,0,0,0-19.45-6.53,127.68,127.68,0,0,1-19.54-6.45,26.84,26.84,0,0,1-12.13-9.76q-4.11-6.26-4.11-16.94,0-11.61,4.64-19.62a30.13,30.13,0,0,1,13-12.16A43.77,43.77,0,0,1,391.9.47a44.7,44.7,0,0,1,12.58,1.66A37.09,37.09,0,0,1,415,7.1a41.82,41.82,0,0,1,9.2,8.84Z"/><path class="cls-1" d="M482,1.38h4.5l45.65,130.79h-5.54L511.05,87.05H457.48L441.9,132.17h-5.69Zm27.12,80.13-24.87-72-24.87,72Z"/><path class="cls-1" d="M626.17,98.28a39,39,0,0,1-3.66,16.94,31.8,31.8,0,0,1-10,12.34,22.85,22.85,0,0,1-13.78,4.61H549.23V1.38h48.2a18.77,18.77,0,0,1,13,4.89,31.38,31.38,0,0,1,8.38,12.52,44.29,44.29,0,0,1,2.93,15.94,41.17,41.17,0,0,1-4,18.24,26.41,26.41,0,0,1-11.23,12.14,27.27,27.27,0,0,1,14.45,12.54A40.53,40.53,0,0,1,626.17,98.28Zm-71.7-91v56h41.17a16.13,16.13,0,0,0,10.85-4.05,27.57,27.57,0,0,0,7.41-10.49,34.65,34.65,0,0,0,2.69-13.45,37,37,0,0,0-2.54-13.9,25.55,25.55,0,0,0-7.11-10.23,15.68,15.68,0,0,0-10.4-3.87Zm66.62,90.45a34.85,34.85,0,0,0-2.78-14,28.08,28.08,0,0,0-7.62-10.59A16.33,16.33,0,0,0,599.83,69H554.47v57.28h44.31A17.35,17.35,0,0,0,610,122.12a28.93,28.93,0,0,0,8.08-10.68A32.48,32.48,0,0,0,621.09,97.73Z"/><path class="cls-1" d="M717.93,126.27v5.9h-70.2V1.38h68.85v5.9H653V62.36h55.69v5.9H653v58Z"/><path class="cls-1" d="M739.78,132.17V1.38H745V126.27h65.12v5.9Z"/><path class="cls-1" d="M425,298.18V178.63l-45.23,94h-3.64l-45.24-94V298.18h-5.31V165.56h4.86l47.51,98.62,47.51-98.62h4.86V298.18Z"/><path class="cls-1" d="M459.44,298.18V165.56h5.32V298.18Z"/><path class="cls-1" d="M493.9,298.18V165.56h44.33A23.36,23.36,0,0,1,550.68,169a33,33,0,0,1,9.72,9.33,48.74,48.74,0,0,1,6.37,13.08A48.24,48.24,0,0,1,569,206.09,52.78,52.78,0,0,1,565.71,225a39.8,39.8,0,0,1-9.27,14.57,23.2,23.2,0,0,1-13.81,6.72l27,51.93h-6.07L536.86,247H499.22v51.17ZM499.22,241h39.92A18.79,18.79,0,0,0,552.26,236a33.23,33.23,0,0,0,8.59-13.08,47.18,47.18,0,0,0,3-16.81,41.75,41.75,0,0,0-3.48-16.91,34.39,34.39,0,0,0-9.34-12.78,19.85,19.85,0,0,0-13-4.87H499.22Z"/><path class="cls-1" d="M624.74,165.56h4.56l46.3,132.62H670l-15.79-45.76H599.87l-15.8,45.76H578.3Zm27.51,81.25-25.23-73-25.22,73Z"/><path class="cls-1" d="M698.23,177.71V298.18h-5.32V165.56h4.26L776.1,287.91V165.56h5.31V298.18H776Z"/><path class="cls-1" d="M810.55,298.18V165.56h35.21q17,0,28.23,8.88t16.94,23.91a93.79,93.79,0,0,1,5.69,33.34q0,20.16-6.23,35.12T872.71,290q-11.46,8.22-27,8.22Zm80.75-66.49q0-17.37-5.31-31t-15.4-21.39q-10.1-7.74-24.83-7.76h-29.9V292.2h29.9q14.88,0,25-7.94t15.33-21.76A87.5,87.5,0,0,0,891.3,231.69Z"/><path class="cls-1" d="M949.14,165.56h4.56L1000,298.18h-5.62l-15.8-45.76H924.27l-15.8,45.76H902.7Zm27.51,81.25-25.23-73-25.22,73Z"/><path class="cls-1" d="M336.38,330.29h1.37l11.13,26.06H347.2l-3.69-8.78h-12.9l-3.71,8.78h-1.7Zm6.58,16-5.88-14-5.92,14Z"/><path class="cls-1" d="M360.28,356.35V330.29h10.81a6.72,6.72,0,0,1,3,.69,7.87,7.87,0,0,1,2.39,1.86,9,9,0,0,1,1.56,2.57,8.08,8.08,0,0,1,.55,2.91,8.49,8.49,0,0,1-.79,3.65,8,8,0,0,1-2.19,2.85,6.22,6.22,0,0,1-3.27,1.36l6.51,10.17h-1.81l-6.39-10h-8.83v10Zm1.58-11.42h9.42a5.16,5.16,0,0,0,3.09-.93,6.19,6.19,0,0,0,2-2.47,7.51,7.51,0,0,0,.7-3.21,6.72,6.72,0,0,0-.81-3.25,7,7,0,0,0-2.17-2.41,5.17,5.17,0,0,0-3-.94h-9.19Z"/><path class="cls-1" d="M401.83,356.53a10.86,10.86,0,0,1-5-1.12,12.19,12.19,0,0,1-3.86-3,13.42,13.42,0,0,1-2.5-4.24,13.69,13.69,0,0,1,0-9.84,13.3,13.3,0,0,1,2.59-4.21,12.89,12.89,0,0,1,3.9-2.95,11,11,0,0,1,4.84-1.08,10.69,10.69,0,0,1,4.94,1.14,12.34,12.34,0,0,1,3.84,3.05,14.34,14.34,0,0,1,2.5,4.25,13.47,13.47,0,0,1,.88,4.78,13.78,13.78,0,0,1-.91,5,14.16,14.16,0,0,1-2.59,4.22,12.72,12.72,0,0,1-3.89,2.92A10.93,10.93,0,0,1,401.83,356.53Zm0-1.47a9.44,9.44,0,0,0,4.35-1,10.53,10.53,0,0,0,3.37-2.69,12.79,12.79,0,0,0,2.15-3.79,12.48,12.48,0,0,0,.75-4.25,12.43,12.43,0,0,0-3-8.15,11,11,0,0,0-3.38-2.63,9.25,9.25,0,0,0-4.22-1,9.43,9.43,0,0,0-4.36,1,10.21,10.21,0,0,0-3.34,2.7,13,13,0,0,0-2.15,3.78,12.07,12.07,0,0,0-.78,4.26,12.4,12.4,0,0,0,.79,4.39,12.59,12.59,0,0,0,2.21,3.75,10.64,10.64,0,0,0,3.36,2.63A9.4,9.4,0,0,0,401.83,355.06Zm3.46-6.09H407l6,7.38h-1.66Z"/><path class="cls-1" d="M436.94,356.53a11.18,11.18,0,0,1-5.22-1.1,8.84,8.84,0,0,1-3.33-3,12.89,12.89,0,0,1-1.76-4.24,21.59,21.59,0,0,1-.54-4.85V330.29h1.54v13.06a20.06,20.06,0,0,0,.47,4.32,11.46,11.46,0,0,0,1.5,3.77,7.59,7.59,0,0,0,2.83,2.65,9.28,9.28,0,0,0,4.48,1,9.15,9.15,0,0,0,4.51-1,7.58,7.58,0,0,0,2.84-2.69,12.35,12.35,0,0,0,1.47-3.77,20.54,20.54,0,0,0,.44-4.24V330.29h1.58v13.06a20.94,20.94,0,0,1-.58,5,12.24,12.24,0,0,1-1.83,4.21,8.94,8.94,0,0,1-3.33,2.91A11,11,0,0,1,436.94,356.53Z"/><path class="cls-1" d="M461.62,356.35V330.29h1.58v26.06Z"/><path class="cls-1" d="M495.62,331.72H486v24.63h-1.58V331.72H474.7v-1.43h20.92Z"/><path class="cls-1" d="M524.45,354.91v1.44H507.1V330.29h17v1.43H508.68v10.61h13.49v1.39H508.68v11.19Z"/><path class="cls-1" d="M555.12,331.72h-9.68v24.63h-1.58V331.72H534.2v-1.43h20.92Z"/><path class="cls-1" d="M577.06,356.53a11.13,11.13,0,0,1-5.21-1.1,8.62,8.62,0,0,1-3.33-3,12.91,12.91,0,0,1-1.77-4.24,21.59,21.59,0,0,1-.53-4.85V330.29h1.54v13.06a20.06,20.06,0,0,0,.46,4.32,11.91,11.91,0,0,0,1.5,3.77,7.62,7.62,0,0,0,2.84,2.65,10.7,10.7,0,0,0,9,0,7.63,7.63,0,0,0,2.83-2.69,11.86,11.86,0,0,0,1.47-3.77,19.88,19.88,0,0,0,.44-4.24V330.29h1.58v13.06a22,22,0,0,1-.56,5,12.45,12.45,0,0,1-1.84,4.21,9,9,0,0,1-3.33,2.91A11,11,0,0,1,577.06,356.53Z"/><path class="cls-1" d="M601.74,356.35V330.29h10.8a6.65,6.65,0,0,1,3,.69,7.75,7.75,0,0,1,2.39,1.86,8.84,8.84,0,0,1,1.57,2.57,7.87,7.87,0,0,1,.55,2.91,8.49,8.49,0,0,1-.79,3.65,7.92,7.92,0,0,1-2.18,2.85,6.32,6.32,0,0,1-3.28,1.36l6.51,10.17h-1.8l-6.4-10h-8.82v10Zm1.58-11.42h9.4a5.1,5.1,0,0,0,3.09-.93,6.22,6.22,0,0,0,2-2.47,7.66,7.66,0,0,0,.7-3.21,6.88,6.88,0,0,0-3-5.66,5.14,5.14,0,0,0-3-.94h-9.19Z"/><path class="cls-1" d="M640.88,330.29h1.37l11.14,26.06h-1.68L648,347.57h-12.9l-3.71,8.78h-1.7Zm6.59,16-5.88-14-5.92,14Z"/><path class="cls-1" d="M698.58,356.35l-13.34-14c-1.06-1.11-1.91-2.06-2.54-2.86a9.82,9.82,0,0,1-1.38-2.14,4.57,4.57,0,0,1-.43-1.85,4.74,4.74,0,0,1,.85-2.72,6.09,6.09,0,0,1,2.28-2,6.85,6.85,0,0,1,3.24-.75,6.69,6.69,0,0,1,3,.64,5.09,5.09,0,0,1,2,1.72A4.35,4.35,0,0,1,693,335a4.58,4.58,0,0,1-1,2.83,11.88,11.88,0,0,1-2.49,2.39c-1,.75-2.1,1.51-3.26,2.28s-2,1.42-2.9,2.16A10.88,10.88,0,0,0,681.2,347a5.14,5.14,0,0,0-.83,2.88,4.38,4.38,0,0,0,1.06,3,6.52,6.52,0,0,0,2.61,1.79,9,9,0,0,0,3.18.6,7.85,7.85,0,0,0,3.87-1,9.4,9.4,0,0,0,3-2.61,12.65,12.65,0,0,0,2-3.75,13.81,13.81,0,0,0,.69-4.39h1.37a15,15,0,0,1-.79,4.86,13.27,13.27,0,0,1-2.29,4.16,11,11,0,0,1-3.53,2.91,9.51,9.51,0,0,1-4.5,1.06,9.89,9.89,0,0,1-4-.82,7.36,7.36,0,0,1-3-2.32,5.77,5.77,0,0,1-1.13-3.6,6.13,6.13,0,0,1,.91-3.34,10.51,10.51,0,0,1,2.43-2.63c1-.78,2.09-1.55,3.23-2.3s2.3-1.57,3.22-2.24a10.2,10.2,0,0,0,2.13-2,3.57,3.57,0,0,0,.76-2.21,3.3,3.3,0,0,0-1.23-2.62,4.69,4.69,0,0,0-3.11-1,5.21,5.21,0,0,0-2.46.56,4.51,4.51,0,0,0-1.75,1.5,3.65,3.65,0,0,0-.65,2.1,3.54,3.54,0,0,0,.31,1.34,10.23,10.23,0,0,0,1.16,1.81c.56.72,1.41,1.65,2.5,2.78l14.3,14.87Z"/><path class="cls-1" d="M728.58,356.35V330.29h1.59v26.06Z"/><path class="cls-1" d="M746.05,333.22v23.13h-1.58V330.29h1.28l18.68,23.49V330.29H766v26.06h-1.58Z"/><path class="cls-1" d="M798.41,331.72h-9.68v24.63h-1.58V331.72h-9.67v-1.43h20.93Z"/><path class="cls-1" d="M827.23,354.91v1.44H809.87V330.29h17v1.43H811.46v10.61H825v1.39H811.46v11.19Z"/><path class="cls-1" d="M839.77,356.35V330.29h10.81a6.65,6.65,0,0,1,3,.69,7.75,7.75,0,0,1,2.39,1.86,8.84,8.84,0,0,1,1.57,2.57,8.08,8.08,0,0,1,.55,2.91,8.49,8.49,0,0,1-.79,3.65,8,8,0,0,1-2.19,2.85,6.25,6.25,0,0,1-3.28,1.36l6.51,10.17h-1.8l-6.39-10h-8.82v10Zm1.59-11.42h9.4a5.14,5.14,0,0,0,3.09-.93,6.19,6.19,0,0,0,2-2.47,7.52,7.52,0,0,0,.71-3.21,6.73,6.73,0,0,0-.82-3.25,6.87,6.87,0,0,0-2.16-2.41,5.17,5.17,0,0,0-3-.94h-9.18Z"/><path class="cls-1" d="M870.91,356.35V330.29h1.59v26.06Z"/><path class="cls-1" d="M897.19,356.53a10.92,10.92,0,0,1-5-1.12,12.3,12.3,0,0,1-3.86-3,14,14,0,0,1-3.38-9.1,13.64,13.64,0,0,1,3.51-9.19,12.85,12.85,0,0,1,3.89-2.95,11.14,11.14,0,0,1,4.84-1.08,10.7,10.7,0,0,1,4.95,1.14,12.23,12.23,0,0,1,3.84,3.05,14.34,14.34,0,0,1,2.5,4.25,13.72,13.72,0,0,1-2.63,14,12.67,12.67,0,0,1-3.88,2.92A10.91,10.91,0,0,1,897.19,356.53Zm-10.62-13.21a12.41,12.41,0,0,0,.8,4.39,12.15,12.15,0,0,0,2.2,3.75,10.64,10.64,0,0,0,3.36,2.63,9.39,9.39,0,0,0,4.26,1,9.5,9.5,0,0,0,4.37-1,10.82,10.82,0,0,0,3.36-2.69,12.57,12.57,0,0,0,2.15-3.79,12.26,12.26,0,0,0,.76-4.25,12.58,12.58,0,0,0-.79-4.39,12.28,12.28,0,0,0-2.23-3.76,11.1,11.1,0,0,0-3.38-2.63,9.79,9.79,0,0,0-8.58,0,10.28,10.28,0,0,0-3.36,2.7,13.19,13.19,0,0,0-2.15,3.78A12.28,12.28,0,0,0,886.57,343.32Z"/><path class="cls-1" d="M921.87,356.35V330.29h10.8a6.73,6.73,0,0,1,3.05.69,8,8,0,0,1,2.38,1.86,8.6,8.6,0,0,1,1.56,2.57,7.87,7.87,0,0,1,.55,2.91,8.49,8.49,0,0,1-.79,3.65,7.92,7.92,0,0,1-2.18,2.85,6.26,6.26,0,0,1-3.27,1.36l6.51,10.17h-1.81l-6.4-10h-8.82v10Zm1.58-11.42h9.41A5.12,5.12,0,0,0,936,344a6.22,6.22,0,0,0,2-2.47,7.65,7.65,0,0,0,.69-3.21,6.71,6.71,0,0,0-.8-3.25,6.92,6.92,0,0,0-2.18-2.41,5.14,5.14,0,0,0-3-.94h-9.19Z"/><path class="cls-1" d="M970.36,354.91v1.44H953V330.29h17v1.43H954.59v10.61h13.5v1.39h-13.5v11.19Z"/><path class="cls-1" d="M997.71,334.4a8.69,8.69,0,0,0-1.43-1.29,8,8,0,0,0-1.65-.89,8.76,8.76,0,0,0-1.89-.52,13.75,13.75,0,0,0-2.19-.16c-2.68,0-4.61.5-5.83,1.52a5,5,0,0,0-1.81,4,4.18,4.18,0,0,0,.8,2.72,5.59,5.59,0,0,0,2.54,1.6,38,38,0,0,0,4.45,1.18,32.79,32.79,0,0,1,4.94,1.36,7.52,7.52,0,0,1,3.22,2.11,5.42,5.42,0,0,1,1.14,3.64,6.4,6.4,0,0,1-.67,3,5.66,5.66,0,0,1-1.88,2.13,9.39,9.39,0,0,1-2.94,1.28,15.57,15.57,0,0,1-3.81.44,16.65,16.65,0,0,1-3.88-.44,14.83,14.83,0,0,1-3.42-1.3,14.16,14.16,0,0,1-3-2.19l.88-1.24a10.26,10.26,0,0,0,1.87,1.61,11.78,11.78,0,0,0,2.22,1.18,14.63,14.63,0,0,0,2.54.73,15.1,15.1,0,0,0,2.82.25,10.15,10.15,0,0,0,5.58-1.32,4.36,4.36,0,0,0,2-3.91,4.4,4.4,0,0,0-.89-2.86,6.33,6.33,0,0,0-2.77-1.8A32.59,32.59,0,0,0,990,344a36.69,36.69,0,0,1-4.74-1.3,6.42,6.42,0,0,1-2.94-2,5.23,5.23,0,0,1-1-3.38,6.65,6.65,0,0,1,1.14-3.95,6.93,6.93,0,0,1,3.24-2.44,13,13,0,0,1,4.81-.83,13.9,13.9,0,0,1,3.13.34,9.63,9.63,0,0,1,2.63,1,11,11,0,0,1,2.26,1.75Z"/><rect class="cls-1" y="64.82" width="16.21" height="291.7"/><rect class="cls-1" width="16.21" height="16.21"/><path class="cls-1" d="M243.09,0,129.65,243.09,51.11,64.82V101l70.63,161.39,16.29.21,105.06-224v317.9h16.39V0Z"/></svg>