<svg id="Camada_1" data-name="Camada 1" xmlns="http://www.w3.org/2000/svg" viewBox="0 0 1000 148.3"><defs><style>.cls-1{fill:#1f2022;}</style></defs><path class="cls-1" d="M168.87,115.43h1.72l13.95,32.64h-2.11l-4.61-11H161.65l-4.64,11h-2.13Zm8.25,20-7.36-17.56-7.42,17.56Z"/><path class="cls-1" d="M198.81,148.07V115.43h13.54a8.25,8.25,0,0,1,3.81.88,9.8,9.8,0,0,1,3,2.32,11.19,11.19,0,0,1,1.95,3.22,10,10,0,0,1,.69,3.65,10.7,10.7,0,0,1-1,4.57,9.9,9.9,0,0,1-2.74,3.57,7.72,7.72,0,0,1-4.09,1.7l8.15,12.73h-2.26l-8-12.46h-11v12.46Zm2-14.29h11.79a6.5,6.5,0,0,0,3.87-1.17,7.72,7.72,0,0,0,2.48-3.09,9.42,9.42,0,0,0,.87-4,8.33,8.33,0,0,0-1-4.07,8.63,8.63,0,0,0-2.72-3,6.5,6.5,0,0,0-3.78-1.17H200.8Z"/><path class="cls-1" d="M250.85,148.3a13.8,13.8,0,0,1-6.22-1.4,15.3,15.3,0,0,1-4.83-3.75,16.89,16.89,0,0,1-3.13-5.31,17.26,17.26,0,0,1-1.12-6.08,17.07,17.07,0,0,1,1.16-6.24,16.78,16.78,0,0,1,3.25-5.28,15.79,15.79,0,0,1,4.88-3.68,13.67,13.67,0,0,1,6.06-1.36,13.36,13.36,0,0,1,6.18,1.43,15.42,15.42,0,0,1,4.82,3.82,17.94,17.94,0,0,1,3.13,5.32A17.26,17.26,0,0,1,265,138a17.29,17.29,0,0,1-3.24,5.29,15.85,15.85,0,0,1-4.86,3.65A13.69,13.69,0,0,1,250.85,148.3Zm0-1.84a11.82,11.82,0,0,0,5.45-1.26,13.07,13.07,0,0,0,4.21-3.38,15.74,15.74,0,0,0,2.65-15.56,15.3,15.3,0,0,0-2.79-4.71,13.69,13.69,0,0,0-4.23-3.29,12.32,12.32,0,0,0-10.75,0,12.87,12.87,0,0,0-4.19,3.38,16.26,16.26,0,0,0-2.69,4.73,15.23,15.23,0,0,0-1,5.34A15.65,15.65,0,0,0,241.3,142a13.43,13.43,0,0,0,4.2,3.28A11.72,11.72,0,0,0,250.85,146.46Zm4.33-7.63h2.11l7.55,9.24h-2.08Z"/><path class="cls-1" d="M294.83,148.3a14,14,0,0,1-6.55-1.38,11,11,0,0,1-4.17-3.74,16.58,16.58,0,0,1-2.21-5.32,27.59,27.59,0,0,1-.67-6.06V115.43h1.93V131.8a25.52,25.52,0,0,0,.59,5.4,14.05,14.05,0,0,0,1.89,4.73,9.32,9.32,0,0,0,3.54,3.31,13.38,13.38,0,0,0,11.25,0,9.56,9.56,0,0,0,3.56-3.38,15.48,15.48,0,0,0,1.84-4.71,26,26,0,0,0,.55-5.31V115.43h2V131.8a26,26,0,0,1-.72,6.25,15.3,15.3,0,0,1-2.3,5.28,11.15,11.15,0,0,1-4.17,3.64A13.7,13.7,0,0,1,294.83,148.3Z"/><path class="cls-1" d="M325.73,148.07V115.43h2v32.64Z"/><path class="cls-1" d="M368.32,117.23H356.21v30.84h-2V117.23H342.11v-1.8h26.21Z"/><path class="cls-1" d="M404.43,146.28v1.79H382.69V115.43H404v1.8H384.67v13.28h16.89v1.75H384.67v14Z"/><path class="cls-1" d="M442.83,117.23H430.71v30.84h-2V117.23H416.62v-1.8h26.21Z"/><path class="cls-1" d="M470.31,148.3a13.91,13.91,0,0,1-6.53-1.38,10.8,10.8,0,0,1-4.17-3.74,16.37,16.37,0,0,1-2.22-5.32,27.58,27.58,0,0,1-.66-6.06V115.43h1.94V131.8a26.18,26.18,0,0,0,.56,5.4,15.42,15.42,0,0,0,1.89,4.73,9.38,9.38,0,0,0,3.56,3.31,13.38,13.38,0,0,0,11.25,0,9.43,9.43,0,0,0,3.54-3.38,14.76,14.76,0,0,0,1.85-4.71,25.32,25.32,0,0,0,.55-5.31V115.43h2V131.8a27.09,27.09,0,0,1-.71,6.25,15.3,15.3,0,0,1-2.3,5.28,11.31,11.31,0,0,1-4.17,3.64A13.7,13.7,0,0,1,470.31,148.3Z"/><path class="cls-1" d="M501.21,148.07V115.43h13.54a8.17,8.17,0,0,1,3.79.88,9.56,9.56,0,0,1,3,2.32,11,11,0,0,1,2,3.22,10,10,0,0,1,.69,3.65,10.7,10.7,0,0,1-1,4.57,9.9,9.9,0,0,1-2.74,3.57,7.79,7.79,0,0,1-4.11,1.7l8.16,12.73h-2.25l-8-12.46H503.19v12.46Zm2-14.29H515a6.46,6.46,0,0,0,3.87-1.17,7.75,7.75,0,0,0,2.49-3.09,9.57,9.57,0,0,0,.88-4,8.45,8.45,0,0,0-1-4.07,8.6,8.6,0,0,0-2.71-3,6.5,6.5,0,0,0-3.78-1.17H503.19Z"/><path class="cls-1" d="M550.24,115.43H552l13.94,32.64h-2.11l-4.61-11H543l-4.65,11h-2.12Zm8.25,20-7.37-17.56-7.41,17.56Z"/><path class="cls-1" d="M622.5,148.07l-16.71-17.48c-1.32-1.38-2.39-2.58-3.18-3.58a12.37,12.37,0,0,1-1.73-2.68,5.68,5.68,0,0,1-.54-2.32,5.88,5.88,0,0,1,1.07-3.4,7.83,7.83,0,0,1,2.85-2.48,8.7,8.7,0,0,1,4.06-.93,8.34,8.34,0,0,1,3.7.8,6.31,6.31,0,0,1,2.55,2.16,5.4,5.4,0,0,1,.93,3.13,5.67,5.67,0,0,1-1.2,3.54,15.13,15.13,0,0,1-3.11,3c-1.28.94-2.63,1.89-4.08,2.86-1.27.88-2.49,1.77-3.63,2.69a13.41,13.41,0,0,0-2.74,3,6.31,6.31,0,0,0-1,3.6A5.5,5.5,0,0,0,601,143.7a8.33,8.33,0,0,0,3.27,2.25,11.19,11.19,0,0,0,4,.74,9.94,9.94,0,0,0,4.84-1.19,11.8,11.8,0,0,0,3.78-3.27,15.66,15.66,0,0,0,2.47-4.71,17.15,17.15,0,0,0,.87-5.49H622a18.87,18.87,0,0,1-1,6.09,16.59,16.59,0,0,1-2.86,5.21,13.84,13.84,0,0,1-4.43,3.64A11.93,11.93,0,0,1,608,148.3a12.48,12.48,0,0,1-5-1,9.34,9.34,0,0,1-3.78-2.91,7.32,7.32,0,0,1-1.42-4.52,7.6,7.6,0,0,1,1.15-4.17,12.87,12.87,0,0,1,3-3.29q1.89-1.48,4-2.89c1.54-1,2.88-2,4-2.8a12.65,12.65,0,0,0,2.67-2.55,4.5,4.5,0,0,0,1-2.76,4.09,4.09,0,0,0-1.55-3.28,5.83,5.83,0,0,0-3.88-1.3,6.64,6.64,0,0,0-3.09.71A5.6,5.6,0,0,0,603,119.4a4.63,4.63,0,0,0-.82,2.63,4.45,4.45,0,0,0,.4,1.67A11.56,11.56,0,0,0,604,126a45.5,45.5,0,0,0,3.13,3.49l17.91,18.61Z"/><path class="cls-1" d="M660.08,148.07V115.43h2v32.64Z"/><path class="cls-1" d="M682,119.11v29h-2V115.43h1.61L705,144.85V115.43h2v32.64h-2Z"/><path class="cls-1" d="M747.53,117.23H735.41v30.84h-2V117.23H721.32v-1.8h26.21Z"/><path class="cls-1" d="M783.62,146.28v1.79H761.88V115.43h21.33v1.8H763.87v13.28h16.9v1.75h-16.9v14Z"/><path class="cls-1" d="M799.33,148.07V115.43h13.54a8.17,8.17,0,0,1,3.79.88,9.56,9.56,0,0,1,3,2.32,11,11,0,0,1,2,3.22,10.19,10.19,0,0,1,.69,3.65,10.7,10.7,0,0,1-1,4.57,10,10,0,0,1-2.74,3.57,7.79,7.79,0,0,1-4.11,1.7l8.15,12.73h-2.25l-8-12.46H801.31v12.46Zm2-14.29h11.78a6.46,6.46,0,0,0,3.87-1.17,7.83,7.83,0,0,0,2.49-3.09,9.57,9.57,0,0,0,.88-4,8.34,8.34,0,0,0-1-4.07,8.48,8.48,0,0,0-2.7-3,6.55,6.55,0,0,0-3.78-1.17H801.31Z"/><path class="cls-1" d="M838.33,148.07V115.43h2v32.64Z"/><path class="cls-1" d="M871.25,148.3a13.8,13.8,0,0,1-6.22-1.4,15.42,15.42,0,0,1-4.83-3.75,17.45,17.45,0,0,1-3.09-17.63,17.31,17.31,0,0,1,3.24-5.28,15.91,15.91,0,0,1,4.88-3.68,13.77,13.77,0,0,1,6.06-1.36,13.41,13.41,0,0,1,6.2,1.43,15.49,15.49,0,0,1,4.81,3.82,17.94,17.94,0,0,1,3.13,5.32,16.87,16.87,0,0,1,1.1,6,17.14,17.14,0,0,1-1.15,6.27,16.91,16.91,0,0,1-3.24,5.29,15.78,15.78,0,0,1-4.87,3.65A13.62,13.62,0,0,1,871.25,148.3ZM858,131.76a15.84,15.84,0,0,0,3.74,10.2,13.28,13.28,0,0,0,4.22,3.28,11.65,11.65,0,0,0,5.34,1.22,11.86,11.86,0,0,0,5.46-1.26,13.55,13.55,0,0,0,4.22-3.38,15.86,15.86,0,0,0,2.69-4.74,15.65,15.65,0,0,0,0-10.82,15.3,15.3,0,0,0-2.79-4.71,13.69,13.69,0,0,0-4.23-3.29,11.78,11.78,0,0,0-5.3-1.21,11.64,11.64,0,0,0-5.45,1.26,12.8,12.8,0,0,0-4.2,3.38,16.26,16.26,0,0,0-2.69,4.73A15.21,15.21,0,0,0,858,131.76Z"/><path class="cls-1" d="M902.14,148.07V115.43h13.54a8.22,8.22,0,0,1,3.81.88,9.8,9.8,0,0,1,3,2.32,11,11,0,0,1,1.95,3.22,10,10,0,0,1,.69,3.65,10.7,10.7,0,0,1-1,4.57,9.9,9.9,0,0,1-2.74,3.57,7.72,7.72,0,0,1-4.09,1.7l8.15,12.73h-2.26l-8-12.46h-11v12.46Zm2-14.29h11.79a6.5,6.5,0,0,0,3.87-1.17,7.83,7.83,0,0,0,2.49-3.09,9.56,9.56,0,0,0,.86-4,8.33,8.33,0,0,0-1-4.07,8.63,8.63,0,0,0-2.72-3,6.5,6.5,0,0,0-3.78-1.17h-11.5Z"/><path class="cls-1" d="M962.88,146.28v1.79H941.15V115.43h21.33v1.8H943.13v13.28H960v1.75H943.13v14Z"/><path class="cls-1" d="M997.14,120.58a11.35,11.35,0,0,0-1.8-1.61,9.77,9.77,0,0,0-2.06-1.12,12.39,12.39,0,0,0-2.38-.65,18.09,18.09,0,0,0-2.74-.2c-3.35,0-5.77.63-7.3,1.9a6.3,6.3,0,0,0-2.27,5.07,5.18,5.18,0,0,0,1,3.4,7,7,0,0,0,3.18,2,47.82,47.82,0,0,0,5.57,1.49,41.6,41.6,0,0,1,6.19,1.7,9.53,9.53,0,0,1,4,2.63,6.78,6.78,0,0,1,1.43,4.57,8,8,0,0,1-.83,3.72,7.2,7.2,0,0,1-2.37,2.66,11.35,11.35,0,0,1-3.68,1.61,19.05,19.05,0,0,1-4.77.55,20.5,20.5,0,0,1-4.86-.55,18.56,18.56,0,0,1-4.28-1.63,18.09,18.09,0,0,1-3.75-2.74l1.1-1.56a13.34,13.34,0,0,0,2.35,2,15.07,15.07,0,0,0,2.78,1.48,18,18,0,0,0,3.18.91,18.32,18.32,0,0,0,3.53.32,12.73,12.73,0,0,0,7-1.65,5.45,5.45,0,0,0,2.53-4.9,5.54,5.54,0,0,0-1.12-3.59,8,8,0,0,0-3.46-2.25,40.49,40.49,0,0,0-5.87-1.6,45.61,45.61,0,0,1-5.93-1.63,8.1,8.1,0,0,1-3.69-2.46,6.55,6.55,0,0,1-1.24-4.22,8.39,8.39,0,0,1,1.42-5,8.75,8.75,0,0,1,4.06-3.05,16.31,16.31,0,0,1,6-1,17.85,17.85,0,0,1,3.92.42,12.27,12.27,0,0,1,3.29,1.26,13.9,13.9,0,0,1,2.83,2.19Z"/><path class="cls-1" d="M154.88,93.25v-92h3.69v92Z"/><path class="cls-1" d="M222.14,14.89a33.8,33.8,0,0,0-4.31-4.66,19.73,19.73,0,0,0-4.74-3.1,24.47,24.47,0,0,0-5.37-1.75,30.89,30.89,0,0,0-6.21-.59q-11.89,0-17.26,5.57t-5.37,14.89q0,6.36,2.32,10A15.62,15.62,0,0,0,188.56,41a97,97,0,0,0,13.06,4.2A84.35,84.35,0,0,1,215.83,50a21.93,21.93,0,0,1,9.25,7.38q3.27,4.65,3.27,12.81a27.06,27.06,0,0,1-1.84,10.31,19.41,19.41,0,0,1-5.32,7.44,22.71,22.71,0,0,1-8.37,4.46,37,37,0,0,1-10.89,1.5,39.71,39.71,0,0,1-11.15-1.5,33,33,0,0,1-9.69-4.59,42.37,42.37,0,0,1-8.52-7.9l2.21-3.36a35.27,35.27,0,0,0,5.52,5.88,30.89,30.89,0,0,0,6.42,4.21A31.29,31.29,0,0,0,194,89.17a37.49,37.49,0,0,0,8,.84q10.52,0,16.58-4.85t6-14.32q0-6.6-2.64-10.55a19,19,0,0,0-8-6.48,75.44,75.44,0,0,0-13.68-4.59,89.27,89.27,0,0,1-13.73-4.54,18.82,18.82,0,0,1-8.53-6.87q-2.9-4.38-2.9-11.9a27.2,27.2,0,0,1,3.27-13.8,21.27,21.27,0,0,1,9.16-8.55A30.77,30.77,0,0,1,201.4.65a31.37,31.37,0,0,1,8.84,1.17,26.05,26.05,0,0,1,7.43,3.49,29.65,29.65,0,0,1,6.47,6.22Z"/><path class="cls-1" d="M264.76,1.29h3.16l32.1,92h-3.89L285.18,61.52H247.52l-11,31.73h-4Zm19.07,56.34L266.34,7,248.85,57.63Z"/><path class="cls-1" d="M366.12,69.42a27.42,27.42,0,0,1-2.57,11.91,22.38,22.38,0,0,1-7,8.68,16,16,0,0,1-9.69,3.24H312v-92h33.88A13.22,13.22,0,0,1,355,4.73a22,22,0,0,1,5.89,8.8A31.2,31.2,0,0,1,363,24.74a28.93,28.93,0,0,1-2.84,12.82,18.6,18.6,0,0,1-7.9,8.54,19.12,19.12,0,0,1,10.16,8.82A28.47,28.47,0,0,1,366.12,69.42Zm-50.41-64V44.81h29A11.34,11.34,0,0,0,352.29,42a19.6,19.6,0,0,0,5.21-7.38,24.49,24.49,0,0,0,1.89-9.45,26.14,26.14,0,0,0-1.79-9.78,17.91,17.91,0,0,0-5-7.19,11,11,0,0,0-7.31-2.72ZM362.55,69a24.62,24.62,0,0,0-1.95-9.84,19.85,19.85,0,0,0-5.36-7.44,11.48,11.48,0,0,0-7.64-2.92H315.71V89.11h31.15a12.25,12.25,0,0,0,7.9-2.92,20.46,20.46,0,0,0,5.68-7.51A22.83,22.83,0,0,0,362.55,69Z"/><path class="cls-1" d="M430.64,89.11v4.14H381.28v-92h48.41V5.44H385V44.17h39.16v4.14H385v40.8Z"/><path class="cls-1" d="M446,93.25v-92h3.69V89.11h45.79v4.14Z"/><path class="cls-1" d="M595.7,93.25V9.19L563.89,75.26h-2.56L529.53,9.19V93.25h-3.74V0h3.42l33.41,69.35L596,0h3.41V93.25Z"/><path class="cls-1" d="M619.93,93.25V0h3.73V93.25Z"/><path class="cls-1" d="M644.16,93.25V0h31.16a16.43,16.43,0,0,1,8.76,2.44A23,23,0,0,1,690.91,9a34.41,34.41,0,0,1,4.48,9.19A33.92,33.92,0,0,1,697,28.5a36.89,36.89,0,0,1-2.34,13.27A27.91,27.91,0,0,1,688.13,52a16.4,16.4,0,0,1-9.71,4.73l19,36.51h-4.28l-18.78-36H647.89v36Zm3.73-40.18H676a13.27,13.27,0,0,0,9.23-3.55,23.42,23.42,0,0,0,6-9.2,33.18,33.18,0,0,0,2.13-11.82,29.36,29.36,0,0,0-2.45-11.89,24.18,24.18,0,0,0-6.57-9,13.93,13.93,0,0,0-9.12-3.43H647.89Z"/><path class="cls-1" d="M736.15,0h3.21l32.55,93.25H768L756.85,61.08H718.66L707.55,93.25h-4Zm19.34,57.13L737.76,5.78,720,57.13Z"/><path class="cls-1" d="M787.82,8.54V93.25h-3.74V0h3l55.5,86V0h3.74V93.25h-3.84Z"/><path class="cls-1" d="M866.79,93.25V0h24.76q12,0,19.85,6.24a38,38,0,0,1,11.91,16.82,65.85,65.85,0,0,1,4,23.44q0,14.18-4.38,24.69A36.86,36.86,0,0,1,910.5,87.47a31.59,31.59,0,0,1-19,5.78ZM923.57,46.5a59.8,59.8,0,0,0-3.73-21.81A34,34,0,0,0,909,9.66q-7.1-5.44-17.46-5.46h-21V89.05h21q10.47,0,17.62-5.59a33.86,33.86,0,0,0,10.77-15.3A61.44,61.44,0,0,0,923.57,46.5Z"/><path class="cls-1" d="M964.24,0h3.21L1000,93.25h-4L984.94,61.08H946.75L935.64,93.25h-4.06Zm19.34,57.13L965.84,5.78,948.11,57.13Z"/><rect class="cls-1" y="26.96" width="6.74" height="121.34"/><rect class="cls-1" width="6.74" height="6.74"/><path class="cls-1" d="M101.11,0,53.93,101.11,21.26,27V42l29.38,67.13,6.77.09,43.7-93.16V148.3h6.82V0Z"/></svg>