<svg id="Camada_1" data-name="Camada 1" xmlns="http://www.w3.org/2000/svg" viewBox="0 0 1000 885.18"><defs><style>.cls-1{fill:#1f2022;}</style></defs><path class="cls-1" d="M42.21,657.19h4.1l33.35,78h-5L63.59,709H24.93l-11.1,26.27H8.75ZM61.93,705,44.32,663,26.59,705Z"/><path class="cls-1" d="M113.8,735.23v-78h32.37a19.94,19.94,0,0,1,9.11,2.08,23.63,23.63,0,0,1,7.15,5.56,26.29,26.29,0,0,1,4.67,7.69,24.12,24.12,0,0,1,1.65,8.74,25.64,25.64,0,0,1-2.37,10.93,23.7,23.7,0,0,1-6.55,8.53,18.53,18.53,0,0,1-9.78,4.06l19.49,30.45h-5.42L145,705.44H118.54v29.79Zm4.74-34.17h28.19a15.39,15.39,0,0,0,9.26-2.81,18.51,18.51,0,0,0,5.95-7.38,22.79,22.79,0,0,0,2.07-9.61,20,20,0,0,0-2.41-9.73,20.76,20.76,0,0,0-6.51-7.25,15.61,15.61,0,0,0-9-2.8H118.54Z"/><path class="cls-1" d="M238.24,735.78a32.69,32.69,0,0,1-14.87-3.35,36.57,36.57,0,0,1-11.56-9,40.71,40.71,0,0,1-7.49-12.7,41.22,41.22,0,0,1-2.67-14.55,40.58,40.58,0,0,1,2.79-14.91,39.7,39.7,0,0,1,7.75-12.63,38.11,38.11,0,0,1,11.67-8.8,32.78,32.78,0,0,1,14.49-3.24,31.89,31.89,0,0,1,14.79,3.41,37.08,37.08,0,0,1,11.52,9.12,42.87,42.87,0,0,1,7.49,12.75,40.24,40.24,0,0,1,2.64,14.3,41,41,0,0,1-2.75,15,41.55,41.55,0,0,1-7.76,12.65,37.93,37.93,0,0,1-11.63,8.73A32.81,32.81,0,0,1,238.24,735.78Zm0-4.39a28,28,0,0,0,13-3,31.48,31.48,0,0,0,10.09-8.07A37.67,37.67,0,0,0,267.78,709a37.33,37.33,0,0,0-.11-25.88A36.68,36.68,0,0,0,261,671.81a33,33,0,0,0-10.13-7.87,27.82,27.82,0,0,0-12.64-2.9,28.19,28.19,0,0,0-13.06,3,31.06,31.06,0,0,0-10,8.1,39.35,39.35,0,0,0-6.43,11.31,36.44,36.44,0,0,0-2.34,12.76,37.54,37.54,0,0,0,9,24.39,32,32,0,0,0,10.05,7.87A28.51,28.51,0,0,0,238.24,731.39Zm10.35-18.25h5l18.07,22.09h-5Z"/><path class="cls-1" d="M343.4,735.78q-9.37,0-15.66-3.3a26.39,26.39,0,0,1-10-9,38.65,38.65,0,0,1-5.27-12.71,66.11,66.11,0,0,1-1.62-14.51V657.19h4.63v39.12a61.7,61.7,0,0,0,1.39,12.93,34.48,34.48,0,0,0,4.52,11.31,22.44,22.44,0,0,0,8.47,7.93c3.58,1.93,8,2.91,13.4,2.91s9.94-1,13.51-3a22.71,22.71,0,0,0,8.51-8.07,36.85,36.85,0,0,0,4.4-11.27A61.67,61.67,0,0,0,371,696.31V657.19h4.74v39.12a62.43,62.43,0,0,1-1.73,15,37,37,0,0,1-5.49,12.63,27.06,27.06,0,0,1-10,8.7C354.47,734.72,349.39,735.78,343.4,735.78Z"/><path class="cls-1" d="M417.29,735.23v-78H422v78Z"/><path class="cls-1" d="M519.14,661.48H490.2v73.75h-4.74V661.48h-29v-4.29h62.67Z"/><path class="cls-1" d="M605.49,730.94v4.29h-52v-78h51v4.29H558.25v31.76h40.39v4.18H558.25v33.52Z"/><path class="cls-1" d="M697.33,661.48h-29v73.75h-4.74V661.48h-29v-4.29h62.67Z"/><path class="cls-1" d="M763.05,735.78c-6.25,0-11.44-1.09-15.62-3.3a25.81,25.81,0,0,1-10-9,38.71,38.71,0,0,1-5.31-12.71,66.11,66.11,0,0,1-1.58-14.51V657.19h4.63v39.12a61.68,61.68,0,0,0,1.35,12.93,36.08,36.08,0,0,0,4.52,11.31,22.56,22.56,0,0,0,8.51,7.93c3.54,1.93,8,2.91,13.36,2.91s9.94-1,13.55-3a22.6,22.6,0,0,0,8.47-8.07,34.93,34.93,0,0,0,4.4-11.27,59,59,0,0,0,1.32-12.71V657.19h4.74v39.12a64.53,64.53,0,0,1-1.69,15,36.85,36.85,0,0,1-5.5,12.63,27.27,27.27,0,0,1-10,8.7C774.16,734.72,769.07,735.78,763.05,735.78Z"/><path class="cls-1" d="M836.94,735.23v-78h32.37a19.77,19.77,0,0,1,9.07,2.08,23.15,23.15,0,0,1,7.15,5.56,26.2,26.2,0,0,1,4.71,7.69,24.12,24.12,0,0,1,1.65,8.74,25.64,25.64,0,0,1-2.37,10.93,23.7,23.7,0,0,1-6.55,8.53,18.66,18.66,0,0,1-9.82,4.06l19.5,30.45h-5.39l-19.15-29.79H841.68v29.79Zm4.74-34.17h28.16a15.35,15.35,0,0,0,9.26-2.81,18.49,18.49,0,0,0,5.94-7.38,22.67,22.67,0,0,0,2.11-9.61,20.1,20.1,0,0,0-2.44-9.73,20.39,20.39,0,0,0-6.48-7.25,15.61,15.61,0,0,0-9-2.8H841.68Z"/><path class="cls-1" d="M954.19,657.19h4.1l33.35,78h-5l-11-26.27H936.91l-11.1,26.27h-5.08ZM973.91,705,956.3,663l-17.73,42Z"/><path class="cls-1" d="M67.6,885.18l-40-41.8c-3.16-3.31-5.72-6.18-7.6-8.57a30.13,30.13,0,0,1-4.14-6.39,13.85,13.85,0,0,1-1.28-5.56,14,14,0,0,1,2.56-8.13A18.28,18.28,0,0,1,24,808.81a20.71,20.71,0,0,1,9.71-2.23,20,20,0,0,1,8.85,1.91,15.22,15.22,0,0,1,6.09,5.15,13.06,13.06,0,0,1,2.23,7.49A13.7,13.7,0,0,1,48,829.6a35.52,35.52,0,0,1-7.45,7.17c-3.05,2.24-6.28,4.52-9.75,6.83q-4.58,3.17-8.69,6.46a32,32,0,0,0-6.55,7,15.24,15.24,0,0,0-2.49,8.62,13.13,13.13,0,0,0,3.17,9,19.6,19.6,0,0,0,7.83,5.37,26.51,26.51,0,0,0,9.52,1.78A23.73,23.73,0,0,0,45.16,879a28.4,28.4,0,0,0,9-7.81A38.18,38.18,0,0,0,60.11,860a41.72,41.72,0,0,0,2.07-13.14h4.1a45.12,45.12,0,0,1-2.37,14.57,40,40,0,0,1-6.85,12.46,33.09,33.09,0,0,1-10.58,8.69A28.55,28.55,0,0,1,33,885.72a29.81,29.81,0,0,1-12-2.44,22.32,22.32,0,0,1-9-6.95,17.41,17.41,0,0,1-3.38-10.8,18.15,18.15,0,0,1,2.74-10,30.91,30.91,0,0,1,7.27-7.88c3-2.35,6.25-4.65,9.67-6.89,3.69-2.45,6.89-4.7,9.64-6.72A30.15,30.15,0,0,0,44.3,828a10.8,10.8,0,0,0,2.25-6.6,9.82,9.82,0,0,0-3.68-7.85,14,14,0,0,0-9.3-3.11,15.77,15.77,0,0,0-7.38,1.7,13.39,13.39,0,0,0-5.23,4.5,10.94,10.94,0,0,0-2,6.28,10.69,10.69,0,0,0,.94,4,28.56,28.56,0,0,0,3.47,5.42c1.69,2.16,4.21,4.95,7.49,8.34l42.83,44.51Z"/><path class="cls-1" d="M178.6,885.18v-78h4.74v78Z"/><path class="cls-1" d="M230.92,815.92v69.26h-4.75v-78H230L286,877.48V807.13h4.74v78H286Z"/><path class="cls-1" d="M387.72,811.42h-29v73.76H354V811.42H325.05v-4.29h62.67Z"/><path class="cls-1" d="M474,880.89v4.29h-52v-78h51v4.29H426.79v31.77h40.43v4.18H426.79v33.52Z"/><path class="cls-1" d="M511.6,885.18v-78H544a19.78,19.78,0,0,1,9.07,2.09,23.12,23.12,0,0,1,7.15,5.55,26.59,26.59,0,0,1,4.71,7.7,24.07,24.07,0,0,1,1.65,8.73,25.65,25.65,0,0,1-2.37,10.94,23.75,23.75,0,0,1-6.55,8.52,18.67,18.67,0,0,1-9.82,4.07l19.5,30.45h-5.39l-19.16-29.79H516.34v29.79ZM516.34,851H544.5a15.29,15.29,0,0,0,9.25-2.8,18.58,18.58,0,0,0,6-7.38,22.87,22.87,0,0,0,2.11-9.62,20,20,0,0,0-2.45-9.73,20.32,20.32,0,0,0-6.47-7.24,15.55,15.55,0,0,0-9-2.81H516.34Z"/><path class="cls-1" d="M604.87,885.18v-78h4.74v78Z"/><path class="cls-1" d="M683.58,885.72a32.81,32.81,0,0,1-14.87-3.35,36.87,36.87,0,0,1-11.56-9A41.92,41.92,0,0,1,647,846.16a40.66,40.66,0,0,1,2.74-14.9,41.29,41.29,0,0,1,7.76-12.63,38.14,38.14,0,0,1,11.67-8.81,33,33,0,0,1,14.49-3.24A32.06,32.06,0,0,1,698.52,810,37.1,37.1,0,0,1,710,819.12a42.69,42.69,0,0,1,7.49,12.74,40.31,40.31,0,0,1,2.63,14.3,41,41,0,0,1-2.74,15,40.11,40.11,0,0,1-7.76,12.65A37.61,37.61,0,0,1,698,882.54,32.55,32.55,0,0,1,683.58,885.72Zm-31.81-39.56a37.74,37.74,0,0,0,9,24.39,31.54,31.54,0,0,0,10.09,7.87,29.5,29.5,0,0,0,25.82-.11,32.39,32.39,0,0,0,10.08-8.08,38.23,38.23,0,0,0,8.7-24.07,37.46,37.46,0,0,0-9-24.41,33,33,0,0,0-10.13-7.86,29.44,29.44,0,0,0-25.71.11,30.7,30.7,0,0,0-10,8.09,39.25,39.25,0,0,0-6.43,11.31A36.39,36.39,0,0,0,651.77,846.16Z"/><path class="cls-1" d="M757.46,885.18v-78h32.37a19.92,19.92,0,0,1,9.11,2.09,23.59,23.59,0,0,1,7.15,5.55,26.25,26.25,0,0,1,4.67,7.7,24.08,24.08,0,0,1,1.66,8.73,25.65,25.65,0,0,1-2.37,10.94,23.86,23.86,0,0,1-6.55,8.52,18.57,18.57,0,0,1-9.79,4.07l19.5,30.45h-5.42l-19.16-29.79H762.21v29.79ZM762.21,851H790.4a15.42,15.42,0,0,0,9.26-2.8,18.56,18.56,0,0,0,5.94-7.38,22.68,22.68,0,0,0,2.07-9.62,20.07,20.07,0,0,0-2.4-9.73,20.84,20.84,0,0,0-6.52-7.24,15.55,15.55,0,0,0-9-2.81H762.21Z"/><path class="cls-1" d="M902.72,880.89v4.29h-52v-78h51v4.29H855.48v31.77H895.9v4.18H855.48v33.52Z"/><path class="cls-1" d="M984.62,819.44a26.7,26.7,0,0,0-4.29-3.84,22.88,22.88,0,0,0-4.93-2.69,27.22,27.22,0,0,0-5.68-1.54,42.23,42.23,0,0,0-6.55-.49c-8,0-13.82,1.5-17.47,4.55a15,15,0,0,0-5.42,12.12c0,3.44.79,6.15,2.41,8.13a16.71,16.71,0,0,0,7.6,4.78A111.66,111.66,0,0,0,963.62,844a99.59,99.59,0,0,1,14.79,4.06,22.6,22.6,0,0,1,9.64,6.31c2.29,2.67,3.42,6.3,3.42,10.91a19.33,19.33,0,0,1-2,8.91,17.22,17.22,0,0,1-5.65,6.36,27.77,27.77,0,0,1-8.81,3.84,45.77,45.77,0,0,1-11.4,1.31A49.27,49.27,0,0,1,952,884.41a43.87,43.87,0,0,1-10.24-3.9,42.22,42.22,0,0,1-9-6.55l2.64-3.73a31.52,31.52,0,0,0,5.6,4.84,36.21,36.21,0,0,0,6.67,3.52,41.29,41.29,0,0,0,7.6,2.18,43.33,43.33,0,0,0,8.43.77q10.66,0,16.71-3.95c4.07-2.63,6.06-6.55,6.06-11.72a13.22,13.22,0,0,0-2.67-8.57,19,19,0,0,0-8.28-5.38,96.11,96.11,0,0,0-14-3.84,107.36,107.36,0,0,1-14.19-3.89,19.32,19.32,0,0,1-8.81-5.87c-2-2.49-3-5.86-3-10.11a20.12,20.12,0,0,1,3.39-11.86,21.07,21.07,0,0,1,9.71-7.3,39.24,39.24,0,0,1,14.41-2.47,41.78,41.78,0,0,1,9.38,1,29,29,0,0,1,7.86,3,33,33,0,0,1,6.78,5.24Z"/><rect class="cls-1" x="884.61" y="455.59" width="115.39" height="5.95"/><rect class="cls-1" y="455.59" width="115.39" height="5.95"/><rect class="cls-1" x="332.05" y="83.92" width="20.98" height="377.62"/><rect class="cls-1" x="332.05" width="20.98" height="20.98"/><path class="cls-1" d="M646.73,0,499.88,314.68,398.21,83.92v46.81l91.43,208.93,21.09.27L646.73,50V461.54H668V0Z"/></svg>